<svg width="34" height="34" viewBox="0 0 34 34" fill="none" xmlns="http://www.w3.org/2000/svg">
<path fill-rule="evenodd" clip-rule="evenodd" d="M34 17C34 26.3888 26.3887 34 17 34C7.61133 34 0 26.3888 0 17C0 7.61121 7.61133 0 17 0C26.3887 0 34 7.61121 34 17ZM16.8237 16.6471C18.3833 16.6471 19.647 15.3835 19.647 13.8235C19.647 12.2635 18.3833 11 16.8237 11C15.2637 11 14 12.2635 14 13.8235C14 15.3835 15.2637 16.6471 16.8237 16.6471ZM22.2939 20.8235V22.2354H11V20.8235C11 18.9459 14.7622 18 16.647 18C18.5317 18 22.2939 18.9459 22.2939 20.8235Z" fill="#F5F1EF"/>
</svg>
