<svg width="23" height="23" viewBox="0 0 23 23" fill="none" xmlns="http://www.w3.org/2000/svg">
<path d="M11.5004 7.18773C10.9095 7.18773 10.3244 7.29928 9.77843 7.51601C9.23249 7.73274 8.73645 8.05041 8.31861 8.45088C7.90077 8.85134 7.56932 9.32676 7.34319 9.85C7.11705 10.3732 7.00066 10.934 7.00066 11.5004C7.00066 12.0667 7.11705 12.6275 7.34319 13.1507C7.56932 13.674 7.90077 14.1494 8.31861 14.5499C8.73645 14.9503 9.23249 15.268 9.77843 15.4847C10.3244 15.7015 10.9095 15.813 11.5004 15.813C12.6938 15.813 13.8383 15.3586 14.6822 14.5499C15.5261 13.7411 16.0001 12.6442 16.0001 11.5004C16.0001 10.3566 15.5261 9.25965 14.6822 8.45088C13.8383 7.6421 12.6938 7.18773 11.5004 7.18773ZM8.50058 11.5004C8.50058 11.1228 8.57817 10.7489 8.72893 10.4001C8.87968 10.0513 9.10065 9.73435 9.37921 9.46737C9.65777 9.2004 9.98846 8.98862 10.3524 8.84413C10.7164 8.69965 11.1065 8.62528 11.5004 8.62528C11.8943 8.62528 12.2844 8.69965 12.6484 8.84413C13.0123 8.98862 13.343 9.2004 13.6216 9.46737C13.9002 9.73435 14.1211 10.0513 14.2719 10.4001C14.4226 10.7489 14.5002 11.1228 14.5002 11.5004C14.5002 12.2629 14.1842 12.9942 13.6216 13.5334C13.059 14.0726 12.296 14.3755 11.5004 14.3755C10.7048 14.3755 9.94178 14.0726 9.37921 13.5334C8.81663 12.9942 8.50058 12.2629 8.50058 11.5004ZM19.21 19.5458L17.4821 18.8184C17.2361 18.716 16.9686 18.6702 16.7009 18.6845C16.4332 18.6988 16.1727 18.7729 15.9401 18.9009C15.4732 19.1596 15.1752 19.6168 15.1162 20.1314L14.9082 21.9331C14.8877 22.1143 14.8091 22.285 14.6832 22.4216C14.5573 22.5582 14.3903 22.6541 14.2052 22.696C12.4261 23.1013 10.5727 23.1013 8.79356 22.696C8.60868 22.6539 8.44193 22.5579 8.31623 22.4213C8.19054 22.2847 8.11207 22.1142 8.0916 21.9331L7.88361 20.1343C7.85382 19.8811 7.7625 19.6381 7.61697 19.4249C7.47144 19.2117 7.27576 19.0342 7.04566 18.9066C6.81568 18.7797 6.55789 18.7061 6.29291 18.6918C6.02794 18.6775 5.76315 18.7228 5.51975 18.8242L3.79185 19.5516C3.61718 19.6251 3.42297 19.6448 3.23611 19.6079C3.04926 19.571 2.879 19.4793 2.74891 19.3455C1.50625 18.0675 0.580936 16.5369 0.0420652 14.8681C-0.0150828 14.6926 -0.0136139 14.5045 0.0462664 14.3299C0.106147 14.1553 0.221446 14.0031 0.376046 13.8944L1.90296 12.8133C2.11792 12.662 2.29269 12.4643 2.41316 12.2362C2.53362 12.0081 2.59639 11.756 2.59639 11.5004C2.59639 11.2447 2.53362 10.9927 2.41316 10.7646C2.29269 10.5365 2.11792 10.3388 1.90296 10.1874L0.376046 9.10925C0.221246 9.00049 0.105817 8.84805 0.0459281 8.67327C-0.0139612 8.4985 -0.0153119 8.31014 0.0420652 8.1346C0.580933 6.46674 1.50706 4.93757 2.75091 3.66191C2.88111 3.52832 3.05143 3.43682 3.23828 3.40007C3.42513 3.36333 3.61928 3.38316 3.79385 3.45682L5.51375 4.1823C5.75847 4.28325 6.02445 4.32789 6.29039 4.31265C6.55634 4.29741 6.81487 4.22272 7.0453 4.09455C7.27573 3.96639 7.47166 3.7883 7.6174 3.57455C7.76314 3.3608 7.85465 3.11732 7.88461 2.86359L8.0946 1.06378C8.11531 0.880542 8.19542 0.708127 8.32366 0.570777C8.4519 0.433427 8.62183 0.33805 8.80956 0.298051C9.68951 0.110212 10.5908 0.0108615 11.5134 0C12.4154 0.00958364 13.3133 0.110212 14.1932 0.298051C14.3811 0.338104 14.5512 0.433624 14.6794 0.571162C14.8077 0.7087 14.8877 0.881329 14.9082 1.06474L15.1172 2.86455C15.162 3.26377 15.3591 3.63306 15.6707 3.90155C15.9822 4.17004 16.3862 4.31882 16.8051 4.31935C17.0381 4.31935 17.2691 4.27239 17.4851 4.18134L19.205 3.45586C19.3795 3.3822 19.5737 3.36237 19.7605 3.39912C19.9474 3.43586 20.1177 3.52736 20.2479 3.66095C21.4914 4.93671 22.4172 6.46587 22.9557 8.13364C23.013 8.30896 23.0117 8.49704 22.952 8.67161C22.8923 8.84617 22.7772 8.99851 22.6228 9.10734L21.0979 10.1874C20.6629 10.4941 20.3999 10.9819 20.3999 11.5004C20.3999 12.0179 20.6629 12.5057 21.0989 12.8133L22.6248 13.8924C22.9407 14.1167 23.0747 14.5077 22.9587 14.8671C22.4192 16.5343 21.4939 18.0631 20.2519 19.3398C20.1218 19.4735 19.9516 19.5652 19.7647 19.6021C19.5778 19.6391 19.3846 19.6194 19.21 19.5458ZM13.7623 19.3561C14.0007 18.6398 14.5086 18.0341 15.1872 17.6569C15.6236 17.4159 16.113 17.2764 16.616 17.2496C17.1189 17.2228 17.6214 17.3094 18.083 17.5026L19.4269 18.068C20.2895 17.1096 20.9576 16.0052 21.3968 14.8115L20.2079 13.971C19.8027 13.6866 19.4731 13.3137 19.2457 12.8845C19.0183 12.4553 18.8995 11.9808 18.899 11.4994C18.899 10.5152 19.3959 9.60185 20.2059 9.03067L20.2079 9.02971L21.3948 8.18922C20.9552 6.99585 20.2868 5.89171 19.4239 4.93366L18.091 5.49526L18.089 5.49622C17.683 5.66873 17.2461 5.75689 16.8031 5.75689C16.0152 5.75618 15.2553 5.47691 14.669 4.97257C14.0826 4.46822 13.711 3.77427 13.6253 3.02364V3.02172L13.4623 1.62251C12.819 1.5078 12.1667 1.44592 11.5124 1.43755C10.8391 1.44649 10.1808 1.50815 9.53752 1.62251L9.37453 3.02268C9.31842 3.50036 9.1462 3.95877 8.87168 4.36108C8.59717 4.76338 8.22802 5.09837 7.79391 5.33912C7.35979 5.57986 6.8728 5.71966 6.37208 5.74728C5.87136 5.7749 5.37085 5.68957 4.91078 5.49814L3.57486 4.93462C2.71205 5.89267 2.04361 6.9968 1.60398 8.19018L2.79391 9.03067C3.19802 9.31564 3.52656 9.68769 3.75298 10.1168C3.97941 10.5459 4.09739 11.02 4.09739 11.5009C4.09739 11.9817 3.97941 12.4558 3.75298 12.8849C3.52656 13.314 3.19802 13.6861 2.79391 13.971L1.60398 14.8125C2.04264 16.0078 2.71076 17.1139 3.57386 18.0738L4.91878 17.5084C5.37755 17.3164 5.87692 17.2303 6.37674 17.2569C6.87655 17.2835 7.36288 17.4222 7.79662 17.6617C8.23001 17.9017 8.59863 18.2357 8.87285 18.637C9.14707 19.0383 9.31924 19.4957 9.37553 19.9723V19.9771L9.53752 21.3801C10.8344 21.6245 12.1674 21.6245 13.4643 21.3801L13.6263 19.9742C13.6503 19.7621 13.6963 19.5561 13.7643 19.3561" fill="#F5F1EF"/>
</svg>
