<svg width="45" height="45" viewBox="0 0 45 45" fill="none" xmlns="http://www.w3.org/2000/svg">
<circle cx="22.5" cy="22.5" r="22.5" fill="#F5F1EF"/>
<path d="M17.96 11H28.04C31.88 11 35 14.12 35 17.96V28.04C35 29.8859 34.2667 31.6562 32.9615 32.9615C31.6562 34.2667 29.8859 35 28.04 35H17.96C14.12 35 11 31.88 11 28.04V17.96C11 16.1141 11.7333 14.3438 13.0385 13.0385C14.3438 11.7333 16.1141 11 17.96 11ZM17.72 13.4C16.5743 13.4 15.4755 13.8551 14.6653 14.6653C13.8551 15.4755 13.4 16.5743 13.4 17.72V28.28C13.4 30.668 15.332 32.6 17.72 32.6H28.28C29.4257 32.6 30.5245 32.1449 31.3347 31.3347C32.1449 30.5245 32.6 29.4257 32.6 28.28V17.72C32.6 15.332 30.668 13.4 28.28 13.4H17.72ZM29.3 15.2C29.6978 15.2 30.0794 15.358 30.3607 15.6393C30.642 15.9206 30.8 16.3022 30.8 16.7C30.8 17.0978 30.642 17.4794 30.3607 17.7607C30.0794 18.042 29.6978 18.2 29.3 18.2C28.9022 18.2 28.5206 18.042 28.2393 17.7607C27.958 17.4794 27.8 17.0978 27.8 16.7C27.8 16.3022 27.958 15.9206 28.2393 15.6393C28.5206 15.358 28.9022 15.2 29.3 15.2ZM23 17C24.5913 17 26.1174 17.6321 27.2426 18.7574C28.3679 19.8826 29 21.4087 29 23C29 24.5913 28.3679 26.1174 27.2426 27.2426C26.1174 28.3679 24.5913 29 23 29C21.4087 29 19.8826 28.3679 18.7574 27.2426C17.6321 26.1174 17 24.5913 17 23C17 21.4087 17.6321 19.8826 18.7574 18.7574C19.8826 17.6321 21.4087 17 23 17ZM23 19.4C22.0452 19.4 21.1295 19.7793 20.4544 20.4544C19.7793 21.1295 19.4 22.0452 19.4 23C19.4 23.9548 19.7793 24.8705 20.4544 25.5456C21.1295 26.2207 22.0452 26.6 23 26.6C23.9548 26.6 24.8705 26.2207 25.5456 25.5456C26.2207 24.8705 26.6 23.9548 26.6 23C26.6 22.0452 26.2207 21.1295 25.5456 20.4544C24.8705 19.7793 23.9548 19.4 23 19.4Z" fill="#39597F"/>
</svg>
