<svg width="34" height="34" viewBox="0 0 34 34" fill="none" xmlns="http://www.w3.org/2000/svg">
<path fill-rule="evenodd" clip-rule="evenodd" d="M17 34C26.3888 34 34 26.3888 34 17C34 7.61116 26.3888 0 17 0C7.61116 0 0 7.61116 0 17C0 26.3888 7.61116 34 17 34ZM21.9598 22.2819C23.1968 21.3463 24.1072 20.0445 24.5614 18.5616L24.5649 18.5666C24.595 18.4688 24.5979 18.3647 24.5733 18.2655C24.5486 18.1662 24.4974 18.0756 24.4251 18.0033C24.3528 17.931 24.2621 17.8797 24.1629 17.8551C24.0636 17.8305 23.9595 17.8333 23.8618 17.8634C22.7892 18.1877 21.6488 18.2149 20.562 17.9421C19.4752 17.6693 18.4828 17.1068 17.6904 16.3145C16.8981 15.5222 16.3356 14.5297 16.0628 13.4429C15.79 12.3561 15.8172 11.2157 16.1415 10.1431C16.1716 10.0454 16.1745 9.9413 16.1498 9.84206C16.1252 9.74281 16.0739 9.65215 16.0016 9.57984C15.9293 9.50753 15.8387 9.4563 15.7394 9.43166C15.6402 9.40702 15.5361 9.40991 15.4384 9.44C13.9555 9.89425 12.6537 10.8046 11.7181 12.0416C10.7609 13.3067 10.2451 14.851 10.25 16.4375C10.2497 17.7967 10.6282 19.1291 11.343 20.2852C12.0579 21.4412 13.0808 22.3751 14.297 22.9821C15.5131 23.5891 16.8744 23.8451 18.228 23.7214C19.5815 23.5977 20.8738 23.0992 21.9598 22.2819Z" fill="#F5F1EF"/>
</svg>
