<svg width="45" height="45" viewBox="0 0 45 45" fill="none" xmlns="http://www.w3.org/2000/svg">
<circle cx="22.5" cy="22.5" r="22.5" fill="#F5F1EF"/>
<g clip-path="url(#clip0_4_24579)">
<path d="M23 13C24.026 13 25.0784 13.0264 26.0984 13.0696L27.3032 13.1272L28.4564 13.1956L29.5364 13.2688L30.5228 13.3456C31.5933 13.4275 32.6005 13.8843 33.3674 14.6356C34.1343 15.387 34.6117 16.3846 34.7156 17.4532L34.7636 17.9632L34.8536 19.0552C34.9376 20.1868 35 21.4204 35 22.6C35 23.7796 34.9376 25.0132 34.8536 26.1448L34.7636 27.2368C34.748 27.412 34.7324 27.5812 34.7156 27.7468C34.6117 28.8155 34.1341 29.8134 33.367 30.5647C32.5998 31.3161 31.5923 31.7727 30.5216 31.8544L29.5376 31.93L28.4576 32.0044L27.3032 32.0728L26.0984 32.1304C25.0662 32.1753 24.0332 32.1985 23 32.2C21.9668 32.1985 20.9338 32.1753 19.9016 32.1304L18.6968 32.0728L17.5436 32.0044L16.4636 31.93L15.4772 31.8544C14.4067 31.7725 13.3995 31.3157 12.6326 30.5644C11.8657 29.813 11.3883 28.8154 11.2844 27.7468L11.2364 27.2368L11.1464 26.1448C11.0546 24.9654 11.0058 23.783 11 22.6C11 21.4204 11.0624 20.1868 11.1464 19.0552L11.2364 17.9632C11.252 17.788 11.2676 17.6188 11.2844 17.4532C11.3882 16.3848 11.8655 15.3873 12.6321 14.636C13.3988 13.8847 14.4058 13.4278 15.476 13.3456L16.4612 13.2688L17.5412 13.1956L18.6956 13.1272L19.9004 13.0696C20.933 13.0248 21.9664 13.0016 23 13ZM23 15.4C22.01 15.4 20.9912 15.4264 20 15.4672L18.8264 15.5236L17.6996 15.5896L16.6412 15.6616L15.6716 15.7372C15.162 15.7734 14.6817 15.9888 14.3157 16.3453C13.9498 16.7018 13.7219 17.1763 13.6724 17.6848C13.532 19.1356 13.4 20.9416 13.4 22.6C13.4 24.2584 13.532 26.0644 13.6724 27.5152C13.7744 28.5616 14.6048 29.3752 15.6716 29.4628L16.6412 29.5372L17.6996 29.6092L18.8264 29.6764L20 29.7328C20.9912 29.7736 22.01 29.8 23 29.8C23.99 29.8 25.0088 29.7736 26 29.7328L27.1736 29.6764L28.3004 29.6104L29.3588 29.5384L30.3284 29.4628C30.838 29.4266 31.3183 29.2112 31.6843 28.8547C32.0502 28.4982 32.2781 28.0237 32.3276 27.5152C32.468 26.0644 32.6 24.2584 32.6 22.6C32.6 20.9416 32.468 19.1356 32.3276 17.6848C32.2781 17.1763 32.0502 16.7018 31.6843 16.3453C31.3183 15.9888 30.838 15.7734 30.3284 15.7372L29.3588 15.6628L28.3004 15.5908L27.1736 15.5236L26 15.4672C25.0006 15.4242 24.0004 15.4018 23 15.4ZM20.6 19.69C20.5999 19.5727 20.6285 19.4572 20.6832 19.3535C20.738 19.2497 20.8172 19.161 20.9141 19.0948C21.011 19.0287 21.1225 18.9873 21.2391 18.9741C21.3556 18.9609 21.4736 18.9764 21.5828 19.0192L21.68 19.0672L26.72 21.976C26.8204 22.0339 26.9053 22.1152 26.9675 22.2129C27.0297 22.3107 27.0675 22.422 27.0775 22.5374C27.0875 22.6529 27.0695 22.769 27.025 22.876C26.9805 22.983 26.9109 23.0777 26.822 23.152L26.72 23.224L21.68 26.134C21.5784 26.1928 21.464 26.2259 21.3468 26.2304C21.2295 26.2349 21.1129 26.2106 21.0071 26.1598C20.9013 26.1089 20.8096 26.0329 20.7399 25.9385C20.6702 25.8441 20.6247 25.7341 20.6072 25.618L20.6 25.51V19.69Z" fill="#39597F"/>
</g>
<defs>
<clipPath id="clip0_4_24579">
<rect width="24" height="24" fill="white" transform="translate(11 11)"/>
</clipPath>
</defs>
</svg>
